<?xml version="1.0" encoding="utf-8"?>
<!-- Generator: Adobe Illustrator 23.0.1, SVG Export Plug-In . SVG Version: 6.00 Build 0)  -->
<svg version="1.1" id="Layer_1" xmlns="http://www.w3.org/2000/svg" xmlns:xlink="http://www.w3.org/1999/xlink" x="0px" y="0px"
	 viewBox="0 0 4000 2000" enable-background="new 0 0 4000 2000" xml:space="preserve">
<rect width="4000" height="2000"/>
<g>
	<linearGradient id="SVGID_1_" gradientUnits="userSpaceOnUse" x1="184.6262" y1="1000" x2="3815.374" y2="1000">
		<stop  offset="0" style="stop-color:#C69C6D"/>
		<stop  offset="1" style="stop-color:#8C6239"/>
	</linearGradient>
	<path fill="url(#SVGID_1_)" d="M1605.7,743.7v15.6h-195.2v-15.6h15.5c18,0,31-5.3,39.3-16.1c5.2-7.2,7.7-24.1,7.7-50.7V388.6
		c0-22.4-1.4-37.4-4.1-44.6c-2.1-5.5-6.6-10.1-13.2-14.2c-9.3-5.3-19.2-7.8-29.6-7.8h-15.5v-15.6h195.2v15.6h-15.8
		c-17.7,0-30.4,5.3-38.6,16.1c-5.3,7-8,23.9-8,50.5v288.3c0,22.6,1.4,37.4,4.1,44.6c2.3,5.5,6.6,10.4,13.4,14.2
		c9.2,5.3,18.9,8,29.2,8H1605.7z M2105.4,306.5v12.4c-16,2.8-27.9,7.9-36.2,15.4c-11.7,10.7-21.9,27.3-31.1,49.7l-156.8,383.2h-12.4
		l-168.4-388.3c-8.7-19.8-14.7-32-18.1-36.5c-5.5-6.8-12.4-12.2-20.7-16c-7.9-4.1-18.8-6.4-32.6-7.5v-12.4h179.6v12.3
		c-21.2,1.9-34.9,5.5-41.4,10.4c-6.1,5.1-9.3,11.7-9.3,19.6c0,11.1,5.2,28.3,15.6,51.6l116.3,262.9l107.6-259.5
		c10.6-25.7,16-43.4,16-53.3c0-6.4-3.2-12.5-10-18.3c-6.5-5.7-17.3-10-32.9-12.3c-1.1-0.2-3-0.6-5.8-1.1v-12.3H2105.4z
		 M2386.5,540.7c31.2,0,54.8-5.1,71-15.3c16.1-10,27-22.5,32.3-37c5.5-14.7,8.8-38.9,10.6-72.7c1.5-37.8,10.4-65.9,26.3-84.4
		c15.9-18.3,42.2-27.6,78.5-27.6v12.8c-13,0.9-21.9,5.7-26.5,14.7c-4.9,8.9-7.1,27.8-7.1,56.7c0,42.3-4.6,75-13.9,98
		s-27.9,41.7-55.9,56.1c-28.1,14.2-66.3,21.9-115.2,23.2v106.6c0,25.7,1.5,42.5,4.6,50.2c3.1,7.7,9.5,13.6,19.6,18.3
		c9.9,4.7,25.1,7,46,7v12.1h-195.2v-12.1c20.3-0.2,35.5-2.3,45.4-6.6c9.9-4,16.5-9.8,19.8-17.9c3.3-7.7,5.1-24.9,5.1-51V565.1
		c-47.5-1.3-84.5-8.7-110.7-23c-26.2-14-44.1-32.5-53.4-55.3c-9.4-23-14.3-56.1-14.3-99.5c0-27.6-1.9-46.3-6.2-55.5
		c-4-9.1-12.8-14.5-26.2-15.5v-12.8c22.4,0.4,40.5,4,54.1,10.6c13.6,6.6,24.7,18.3,33,35.1c8.3,16.8,13,38.7,14.1,66.3
		c1.5,33.6,4.7,57.6,9.8,72.3c4.9,14.7,15.3,27,31.3,37.2c16,10.4,38.8,15.5,68.6,15.5H2386.5z M824.9,915.5H614.1V1256
		c0,29.4,3.7,48,11.1,55.8c7.4,8,24.4,12.5,51.4,13.3v12H489.1v-12c26.8-0.8,44-5.3,51.4-13.3c7.4-7.8,11.1-26.4,11.1-55.7V973.1
		c0-29.3-3.7-47.9-11.1-55.7s-24.6-12.2-51.4-13.1v-12.2h460.7v12.2c-26.7,0.8-43.9,5.3-51.2,13.1c-7.3,7.8-11.2,26.4-11.2,55.7
		v283.1c0,29.3,3.9,47.9,11.2,55.7c7.3,8,24.5,12.4,51.2,13.3v12H762.4v-12c26.6-0.8,43.7-5.3,51.1-13.1c7.6-7.6,11.3-26.4,11.3-56
		V915.5z M2042.9,904.4v-12.3h-640.3v12.2c1,0.2,4.8,0.6,11.5,1.3c16.1,1.3,27.3,5.5,33.6,12.4c6.4,7,9.6,25.5,9.6,55.5v282.6
		c0,28.7-3.4,47-10.2,54.8c-6.6,8-21.5,12.7-44.4,14.1v12h164v-12c-20.1-2.3-32.9-7.4-38.4-15.9c-5.7-8-8.5-26-8.5-53.3V972.8
		c0-22.6,0.8-37,2.2-42.9c1.6-6.1,4.1-9.9,7.7-11.6c3.7-1.9,11.8-2.7,24.8-2.7h89.1c23.5,0,37.3,1.9,41.7,5.3
		c4.3,3.6,6.4,20.9,6.4,52V1256c0,26.8-3.2,44.4-9.6,52.8c-6.4,8.7-21.4,13.9-45.1,16.3v12h164v-12c-20.1-2.3-33.1-7.6-38.6-16.1
		c-5.5-8.5-8.3-26-8.3-53V972.8c0-29,1.8-45.7,5.1-50.3c3.5-4.6,16.7-7,39.6-7h92.3c13.2,0,21.6,1.1,25.7,3.2
		c4.1,2.1,6.6,5.1,7.5,9.3c1.1,4.2,1.6,19,1.6,44.8V1256c0,27.3-3.2,45-9.8,53.3c-6.4,8.2-21.4,13.5-44.9,15.9v12h171.8V1325
		c-15.7-0.4-27.5-3-35.5-7.4c-8-4.3-13.1-10.6-15.5-18.5c-2.4-8.3-3.7-22.7-3.7-43.6V974.1c0-23.2,1-37.8,2.8-44.4
		c1.8-6.2,6-12.1,12.3-17.4C2009.6,907.4,2022.9,904.6,2042.9,904.4z M2489.4,892.1l294.9,421.6h-184.1c0,0-49.7-8.5-64.8-20.8
		c-15.1-12.5-28.5-37.4-40.2-75.2l-11.1,1.9l21.3,117.5h365.2v-9.9l-289.3-411.7h144.4c23.9,0,41.2,2.6,51.9,7.7
		c10.7,5.3,19,12.8,24.6,22.9c5.8,9.8,10.9,28.2,15.4,55.3h12.8l-9.1-109.3H2489.4z M3097,1321.5v15.6h-195.2v-15.6h17.5
		c20.2,0,34.9-5.5,44-16.3c5.8-7,8.8-23.9,8.8-50.5V966.4c0-22.6-1.6-37.4-4.7-44.6c-2.6-5.5-7.4-10.1-14.9-14.2
		c-10.7-5.3-21.6-7.8-33.3-7.8h-17.5v-7.8H3097v7.8h-15.7c-17.7,0-30.7,5.3-38.8,16.1c-5.4,7-8,23.9-8,50.5v288.3
		c0,22.6,1.4,37.4,4.1,44.6c2.1,5.5,6.6,10.4,13.4,14.2c9.3,5.3,19,8,29.3,8H3097z M3128.7,892.1l294.9,421.6h-184.1
		c0,0-49.7-8.5-64.8-20.8c-15.1-12.5-28.5-37.4-40.2-75.2l-11.1,1.9l21.3,117.5h366.1v-9.9l-289.3-411.7H3366
		c23.9,0,41.2,2.6,51.9,7.7c10.7,5.3,19,12.8,24.6,22.9c5.8,9.8,10.9,28.2,15.6,55.3h11.7l-9.1-109.3H3128.7z M1106,915.5v171.8h98
		c25.2,0,42.1-3.7,50.7-11c11.4-9.8,17.7-26.9,18.9-51.4h12V1181h-12c-2.9-23-6.1-37.7-9-44.2c-4-8.3-10.5-14.5-19.3-19.2
		c-9-4.7-22.7-6.9-41.2-6.9h-98v154c0,19.3,1,31.1,2.7,35.3c1.7,4.1,4.6,7.7,8.9,10c4.4,2.7,12.7,3.7,24.7,3.7h74.1
		c24.7,0,42.7-1.7,53.9-5c11-3.5,21.8-10.4,32.2-20.5c13.3-13.3,27-33.4,40.9-60.4h11.8l-37.6,109.3H981v-15.6h15.5
		c10.3,0,20-2.5,29.3-7.6c6.8-3.6,11.5-8.9,14-15.8c2.5-7.2,3.7-21.5,3.7-43.3V965.1c0-28.3-2.9-45.6-8.5-52.1
		c-7.6-8.9-20.6-13.1-38.6-13.1H981v-15.6h355.6l4.8,101.5h-37.1c-4.2-22.5-9-37.9-14.5-46.4c-5.4-8.4-13.3-14.7-23.5-19.3
		c-8.4-3-23.1-4.6-44.2-4.6H1106z M2206.9,915.5v171.8h98c25.2,0,42.1-3.7,50.7-11c11.4-9.8,17.7-26.9,18.9-51.4h12V1181h-12
		c-2.9-23-6.1-37.7-9.3-44.2c-3.8-8.3-10.3-14.5-19.1-19.2c-9-4.7-22.7-6.9-41.2-6.9h-98v154c0,19.3,1,31.1,2.5,35.3
		c1.9,4.1,4.8,7.7,9.1,10c4.4,2.7,12.7,3.7,24.5,3.7h74.3c24.7,0,42.7-1.7,53.9-5c11-3.5,21.8-10.4,32.2-20.5
		c13.3-13.3,27-33.4,40.9-60.4h3.9l-37.6,109.3h-336.4v-15.6h15.5c10.3,0,20-2.5,29.3-7.6c6.8-3.6,11.5-8.9,14-15.8
		c2.5-7.2,3.7-21.5,3.7-43.3V965.1c0-28.3-2.9-45.6-8.5-52.1c-7.6-8.9-20.6-13.1-38.6-13.1h-15.5v-15.6h355.6l4.8,101.5h-29.3
		c-4.4-22.5-9-37.9-14.5-46.4c-5.4-8.4-13.3-14.7-23.5-19.3c-8.4-3-23.1-4.6-44.2-4.6H2206.9z M2808.1,525.1h994.9h12.3v12.3V1684
		v12.3h-14.1H196.3h-11.7v-7.8l7.8-1149.2v-14.2h12.3h987.1v23.4h-976l-5.9,1124.4h3574.2V548.5h-976V525.1z"/>
</g>
</svg>
